HIERARCHY
ROOT hip
{
  OFFSET 0 0 0
  CHANNELS 6 Xposition Yposition Zposition Zrotation Yrotation Xrotation
  JOINT abdomen
  {
    OFFSET 0 20.6881 -0.73152
    CHANNELS 3 Zrotation Xrotation Yrotation
    JOINT chest
    {
      OFFSET 0 11.7043 -0.48768
      CHANNELS 3 Zrotation Xrotation Yrotation
      JOINT neck
      {
        OFFSET 0 22.1894 -2.19456
        CHANNELS 3 Zrotation Xrotation Yrotation
        JOINT head
        {
          OFFSET -0.24384 7.07133 1.2192
          CHANNELS 3 Zrotation Xrotation Yrotation
          JOINT leftEye
          {
            OFFSET 4.14528 8.04674 8.04672
            CHANNELS 3 Zrotation Xrotation Yrotation
            End Site
            {
              OFFSET 1 0 0
            }
          }
          JOINT rightEye
          {
            OFFSET -3.6576 8.04674 8.04672
            CHANNELS 3 Zrotation Xrotation Yrotation
            End Site
            {
              OFFSET 1 0 0
            }
          }
        }
      }
      JOINT rCollar
      {
        OFFSET -2.68224 19.2634 -4.8768
        CHANNELS 3 Zrotation Xrotation Yrotation
        JOINT rShldr
        {
          OFFSET -8.77824 -1.95073 1.46304
          CHANNELS 3 Zrotation Xrotation Yrotation
          JOINT rForeArm
          {
            OFFSET -28.1742 -1.7115 0.48768
            CHANNELS 3 Zrotation Xrotation Yrotation
            JOINT rHand
            {
              OFFSET -22.5879 0.773209 7.07136
              CHANNELS 3 Zrotation Xrotation Yrotation
              JOINT rThumb1
              {
                OFFSET -1.2192 -0.487915 3.41376
                CHANNELS 3 Zrotation Xrotation Yrotation
                JOINT rThumb2
                {
                  OFFSET -3.37035 -0.52449 3.41376
                  CHANNELS 3 Zrotation Xrotation Yrotation
                  End Site
                  {
                    OFFSET -1.78271 -1.18214 1.43049
                  }
                }
              }
              JOINT rIndex1
              {
                OFFSET -7.75947 0.938293 5.60832
                CHANNELS 3 Zrotation Xrotation Yrotation
                JOINT rIndex2
                {
                  OFFSET -2.54057 -0.884171 1.56538
                  CHANNELS 3 Zrotation Xrotation Yrotation
                  End Site
                  {
                    OFFSET -1.62519 -0.234802 1.16502
                  }
                }
              }
              JOINT rMid1
              {
                OFFSET -8.24714 1.18213 3.41376
                CHANNELS 3 Zrotation Xrotation Yrotation
                JOINT rMid2
                {
                  OFFSET -3.10165 -0.590103 1.0647
                  CHANNELS 3 Zrotation Xrotation Yrotation
                  End Site
                  {
                    OFFSET -2.48547 -0.328903 0.83742
                  }
                }
              }
              JOINT rRing1
              {
                OFFSET -8.82822 0.546677 1.51678
                CHANNELS 3 Zrotation Xrotation Yrotation
                JOINT rRing2
                {
                  OFFSET -2.60934 -0.819778 -0.0198488
                  CHANNELS 3 Zrotation Xrotation Yrotation
                  End Site
                  {
                    OFFSET -2.33842 -0.294052 0.168128
                  }
                }
              }
              JOINT rPinky1
              {
                OFFSET -8.27202 -0.0477905 -0.4584
                CHANNELS 3 Zrotation Xrotation Yrotation
                JOINT rPinky2
                {
                  OFFSET -1.82734 -0.647385 -0.700984
                  CHANNELS 3 Zrotation Xrotation Yrotation
                  End Site
                  {
                    OFFSET -1.69225 -0.51767 -0.607171
                  }
                }
              }
            }
          }
        }
      }
      JOINT lCollar
      {
        OFFSET 2.68224 19.2634 -4.8768
        CHANNELS 3 Zrotation Xrotation Yrotation
        JOINT lShldr
        {
          OFFSET 8.77824 -1.95073 1.46304
          CHANNELS 3 Zrotation Xrotation Yrotation
          JOINT lForeArm
          {
            OFFSET 28.1742 -1.7115 0.48768
            CHANNELS 3 Zrotation Xrotation Yrotation
            JOINT lHand
            {
              OFFSET 22.5879 0.773209 7.07136
              CHANNELS 3 Zrotation Xrotation Yrotation
              JOINT lThumb1
              {
                OFFSET 1.2192 -0.487915 3.41376
                CHANNELS 3 Zrotation Xrotation Yrotation
                JOINT lThumb2
                {
                  OFFSET 3.37035 -0.52449 3.41376
                  CHANNELS 3 Zrotation Xrotation Yrotation
                  End Site
                  {
                    OFFSET 1.78271 -1.18214 1.43049
                  }
                }
              }
              JOINT lIndex1
              {
                OFFSET 7.75947 0.938293 5.60832
                CHANNELS 3 Zrotation Xrotation Yrotation
                JOINT lIndex2
                {
                  OFFSET 2.54057 -0.884171 1.56538
                  CHANNELS 3 Zrotation Xrotation Yrotation
                  End Site
                  {
                    OFFSET 1.62519 -0.234802 1.16502
                  }
                }
              }
              JOINT lMid1
              {
                OFFSET 8.24714 1.18213 3.41376
                CHANNELS 3 Zrotation Xrotation Yrotation
                JOINT lMid2
                {
                  OFFSET 3.10165 -0.590103 1.0647
                  CHANNELS 3 Zrotation Xrotation Yrotation
                  End Site
                  {
                    OFFSET 2.48547 -0.328903 0.83742
                  }
                }
              }
              JOINT lRing1
              {
                OFFSET 8.82822 0.546677 1.51678
                CHANNELS 3 Zrotation Xrotation Yrotation
                JOINT lRing2
                {
                  OFFSET 2.60934 -0.819778 -0.0198488
                  CHANNELS 3 Zrotation Xrotation Yrotation
                  End Site
                  {
                    OFFSET 2.33842 -0.294052 0.168128
                  }
                }
              }
              JOINT lPinky1
              {
                OFFSET 8.27202 -0.0477905 -0.4584
                CHANNELS 3 Zrotation Xrotation Yrotation
                JOINT lPinky2
                {
                  OFFSET 1.82734 -0.647385 -0.700984
                  CHANNELS 3 Zrotation Xrotation Yrotation
                  End Site
                  {
                    OFFSET 1.69225 -0.51767 -0.607171
                  }
                }
              }
            }
          }
        }
      }
    }
  }
  JOINT rButtock
  {
    OFFSET -8.77824 4.35084 1.2192
    CHANNELS 3 Zrotation Xrotation Yrotation
    JOINT rThigh
    {
      OFFSET 0 -1.70687 -2.19456
      CHANNELS 3 Zrotation Xrotation Yrotation
      JOINT rShin
      {
        OFFSET 0 -36.8199 0.73152
        CHANNELS 3 Zrotation Xrotation Yrotation
        JOINT rFoot
        {
          OFFSET 0.73152 -45.1104 -5.12064
          CHANNELS 3 Zrotation Xrotation Yrotation
          End Site
          {
            OFFSET -1.1221 -3.69964 12.103
          }
        }
      }
    }
  }
  JOINT lButtock
  {
    OFFSET 8.77824 4.35084 1.2192
    CHANNELS 3 Zrotation Xrotation Yrotation
    JOINT lThigh
    {
      OFFSET 0 -1.70687 -2.19456
      CHANNELS 3 Zrotation Xrotation Yrotation
      JOINT lShin
      {
        OFFSET 0 -36.8199 0.73152
        CHANNELS 3 Zrotation Xrotation Yrotation
        JOINT lFoot
        {
          OFFSET -0.73152 -45.1104 -5.12064
          CHANNELS 3 Zrotation Xrotation Yrotation
          End Site
          {
            OFFSET 1.1221 -3.69964 12.103
          }
        }
      }
    }
  }
}
MOTION
Frames:	4
Frame Time:	0.03333
-4.3864041566848755 56.10640048980713 10.855539795011282 10.152393341064453 19.149093627929688 6.523561000823975 -19.8043270111084 10.026419639587402 -1.7380567789077759 6.2860589027404785 -7.666236400604248 -0.4426600933074951 -7.579219818115234 18.45523452758789 -11.07288646697998 11.772092819213867 -26.825326919555664 -19.022293090820312 0.024606628343462944 0.04996625334024429 -0.045193519443273544 -0.06593882292509079 -0.029209546744823456 -0.04818227142095566 -0.05836547911167145 0.004694248549640179 0.06469893455505371 53.479736328125 33.568702697753906 4.780848026275635 -20.276418685913086 -13.773181915283203 39.819252014160156 0.012122654356062412 9.84227180480957 1.3211666345596313 0.040439244359731674 -0.07421372830867767 0.03561074286699295 0.046099018305540085 0.0784599557518959 0.03653322905302048 -0.07874265313148499 -0.12866322696208954 -0.009468216449022293 7.787788391113281 5.5055766105651855 0.38943377137184143 -0.012017696164548397 -0.037488631904125214 -0.0350269190967083 2.8865978717803955 0.8801199197769165 0.07864248007535934 0.024164581671357155 -0.06332298368215561 -0.01925746351480484 10.268613815307617 0.7401492595672607 0.005334371235221624 -0.026123739778995514 0.03454185649752617 0.05187058448791504 2.157226324081421 -0.7491979598999023 -0.222116157412529 -0.00986864510923624 -0.031802572309970856 0.018868520855903625 -67.92664337158203 36.96752166748047 -10.912666320800781 16.50265884399414 -8.894452095031738 -30.020788192749023 0.29156559705734253 15.924958229064941 -2.181133985519409 -0.0095636872574687 -0.03333326056599617 -0.014936538413167 -0.019001618027687073 0.07013211399316788 0.02099473774433136 0.013004012405872345 -0.049422744661569595 0.06372062861919403 -7.697290897369385 5.444169998168945 -0.44435596466064453 -0.00463707884773612 0.0038442632649093866 0.046942755579948425 -2.928740978240967 0.9506027698516846 -0.07386075705289841 -0.07104659080505371 0.043937746435403824 -0.036008138209581375 -10.33370590209961 0.8254439830780029 -0.10191560536623001 -0.014683703891932964 -0.050747230648994446 -0.0042773662135005 -2.254586935043335 -0.7229682207107544 0.18508034944534302 0.014832349494099617 -0.016718031838536263 0.014318595640361309 -64.74458312988281 -56.86640167236328 -54.26661682128906 -3.0625104904174805 72.55670928955078 3.564724922180176 0.9802293181419373 -4.016902446746826 10.3778076171875 -0.16259576380252838 -0.16105839610099792 -0.03405553475022316 6.391357421875 13.635695457458496 2.914428234100342 -0.32483935356140137 28.203886032104492 -2.476149082183838 12.04689884185791 -21.856332778930664 32.172332763671875
-4.595672059804201 56.663715839385986 10.772008541971445 10.036033630371094 19.312841415405273 6.573751449584961 -19.879335403442383 10.106410026550293 -1.8145239353179932 6.305877685546875 -7.64276647567749 -0.46985170245170593 -7.576307773590088 18.538211822509766 -11.058076858520508 11.752763748168945 -26.760820388793945 -18.975919723510742 0.015476616099476814 0.07280899584293365 -0.0137722073122859 -0.06841794401407242 -0.00021901802392676473 -0.07453309744596481 -0.03978666290640831 -0.0352344885468483 0.054516781121492386 53.805908203125 33.59661865234375 4.7102251052856445 -20.161897659301758 -13.655954360961914 39.61341857910156 0.019625943154096603 9.937115669250488 1.3476629257202148 0.05050357058644295 -0.0736863762140274 0.027742287144064903 0.03206999599933624 0.09638424962759018 0.04595901817083359 -0.07934105396270752 -0.15662743151187897 -0.042261600494384766 7.797475337982178 5.492502212524414 0.4100598394870758 0.026677599176764488 -0.04549933224916458 -0.0050917635671794415 2.896493911743164 0.8763989210128784 0.09550584852695465 0.06318594515323639 -0.04320526495575905 -0.025437291711568832 10.254645347595215 0.7599453330039978 0.007122787181288004 -0.020083261653780937 0.019811322912573814 0.062398653477430344 2.1466968059539795 -0.7303478717803955 -0.2213219702243805 0.0028432582039386034 -0.030106551945209503 -0.0215755645185709 -68.13900756835938 36.80765151977539 -10.579851150512695 16.563549041748047 -8.911439895629883 -30.01053810119629 0.286003053188324 15.99484920501709 -2.2128844261169434 -0.0051496378146111965 -0.01036804262548685 -0.03676533326506615 -0.00858678575605154 0.04729875549674034 0.011716026812791824 0.011284548789262772 -0.05086482688784599 0.07889476418495178 -7.661944389343262 5.435846328735352 -0.3975949287414551 -0.025657232850790024 -0.03917426988482475 0.02547411434352398 -2.905679225921631 0.9398512840270996 -0.0769137591123581 -0.06982043385505676 0.0467764250934124 -0.04174421355128288 -10.34489631652832 0.8670514822006226 -0.08787909150123596 0.0172773115336895 -0.05867503210902214 -0.026096008718013763 -2.257920026779175 -0.7427847385406494 0.16773024201393127 0.010375595651566982 0.0036793958861380816 -0.006073730532079935 -65.10842895507812 -56.926795959472656 -54.73971176147461 -3.208733320236206 72.53845977783203 3.7299251556396484 0.858974814414978 -3.932093620300293 10.275925636291504 -0.1303175389766693 -0.12947510182857513 -0.02078876458108425 6.436891555786133 13.481810569763184 3.022517681121826 -0.3653919994831085 28.494216918945312 -2.4548699855804443 12.103023529052734 -21.92973518371582 32.17903518676758
-4.742008075118065 56.68260455131531 10.762023366987705 10.011852264404297 19.463525772094727 6.609333515167236 -19.951597213745117 10.032891273498535 -1.845580816268921 6.395529270172119 -7.664779186248779 -0.489982932806015 -7.666908264160156 18.498445510864258 -11.079870223999023 11.852814674377441 -26.658767700195312 -19.181110382080078 0.03741828352212906 0.05434068292379379 -0.0174395814538002 -0.04196888953447342 -0.003468714654445648 -0.0670488029718399 -0.016999967396259308 -0.05331731215119362 0.03260663524270058 54.27194595336914 33.178611755371094 4.306483268737793 -19.93914031982422 -13.380884170532227 38.98332214355469 -0.06400755792856216 9.817896842956543 1.341109275817871 0.05873286724090576 -0.07804680615663528 0.016964036971330643 0.04233182221651077 0.0827343612909317 0.0510447733104229 -0.04091765731573105 -0.1695421040058136 0.0008618382853455842 7.808675765991211 5.461235046386719 0.3944730758666992 0.03561056777834892 -0.03335050866007805 -0.013678140938282013 2.91788911819458 0.8906912207603455 0.10912368446588516 0.0557747557759285 -0.0559406615793705 -0.003544037928804755 10.256823539733887 0.7124317288398743 0.005531058181077242 -0.017121732234954834 0.038472484797239304 0.03794572129845619 2.1759636402130127 -0.7254490256309509 -0.2199091613292694 0.043555863201618195 -0.0034252495970577 -0.01734359934926033 -68.05400085449219 36.85490036010742 -10.915382385253906 16.413328170776367 -8.828706741333008 -29.76354217529297 0.3099455237388611 16.12333106994629 -2.2409398555755615 -0.04684493690729141 0.0089572137221694 0.004756114911288023 -0.03239186480641365 0.036784566938877106 0.005602414254099131 0.013716015964746475 -0.025493251159787178 0.07998760044574738 -7.649765968322754 5.420641899108887 -0.43220454454421997 -0.04980117082595825 -0.04697924107313156 0.022666018456220627 -2.9160830974578857 0.9542170763015747 -0.05928731709718704 -0.08020620048046112 0.028897035866975784 -0.06182613596320152 -10.369626998901367 0.8643351197242737 -0.07914295792579651 0.030766034498810768 -0.08058880269527435 0.014040257781744003 -2.2597968578338623 -0.7478762269020081 0.15954354405403137 -0.021851561963558197 0.008002407848834991 -0.053123582154512405 -64.25623321533203 -56.57453918457031 -53.89100646972656 -3.1911134719848633 72.03070831298828 3.745945453643799 0.9322040677070618 -3.8792643547058105 10.391439437866211 -0.11089833825826645 -0.14157846570014954 -0.006041558459401131 6.443659782409668 13.421578407287598 3.292311668395996 -0.4140644967556 29.04214096069336 -2.4274981021881104 12.187911033630371 -22.240938186645508 32.198638916015625
-4.8645914532244205 56.727540493011475 10.80612288787961 10.061769485473633 19.527935028076172 6.440216064453125 -19.733917236328125 10.136061668395996 -1.936517357826233 6.479129314422607 -7.72661018371582 -0.45555177330970764 -7.805491924285889 18.388113021850586 -11.163979530334473 11.987114906311035 -26.41643714904785 -19.473949432373047 0.019859623163938522 0.019474543631076813 -0.0206950344145298 -0.02655605971813202 -0.027935901656746864 -0.05577123537659645 -0.009570594877004623 -0.012644139118492603 -0.0032320327591151 54.27138137817383 32.55422592163086 4.1480865478515625 -19.705352783203125 -13.117986679077148 38.45627975463867 -0.10891011357307434 9.655230522155762 1.3209046125411987 0.06432569772005081 -0.09141315519809723 0.03012947179377079 0.053885359317064285 0.049200233072042465 0.05153244361281395 -0.00986060593277216 -0.15755026042461395 0.03820310905575752 7.822529315948486 5.4687299728393555 0.3841905891895294 0.028370631858706474 0.008638842962682247 -0.08298704028129578 2.910797595977783 0.907425582408905 0.1217457577586174 0.05521734431385994 -0.026075491681694984 -0.0009680442744866014 10.245611190795898 0.6835203766822815 0.03815092518925667 -0.018014535307884216 0.014844102784991264 0.01611959934234619 2.183361053466797 -0.7409462332725525 -0.2081330418586731 0.07609792798757553 -0.006401798687875271 -0.003152778372168541 -67.88984680175781 37.139503479003906 -11.221095085144043 16.38743782043457 -8.780985832214355 -29.777605056762695 0.32487788796424866 16.19045639038086 -2.2781293392181396 -0.06729267537593842 -0.02894015796482563 0.003995922394096851 -0.04376163333654404 0.012265533208847046 0.018995167687535286 -0.009786177426576614 -0.03786810114979744 0.0739714577794075 -7.684985637664795 5.42327880859375 -0.4409971535205841 -0.022461669519543648 -0.02165284752845764 0.04357851296663284 -2.945883274078369 0.9839268922805786 -0.07098198682069778 -0.0658838301897049 0.03458930552005768 -0.08128868043422699 -10.366355895996094 0.8638515472412109 -0.09168491512537003 -0.005689247976988554 -0.05436079576611519 0.039599038660526276 -2.2390384674072266 -0.7219446897506714 0.17037157714366913 -0.037765201181173325 0.014555293135344982 -0.07573176175355911 -63.14228820800781 -56.41228103637695 -52.68193435668945 -3.006477117538452 71.66378784179688 3.591252565383911 1.0952906608581543 -3.5965025424957275 10.638954162597656 -0.11668688803911209 -0.1542523354291916 -0.010750348679721355 6.307930946350098 13.146671295166016 3.274343490600586 -0.4209369719028473 29.88016128540039 -2.50398850440979 12.192765235900879 -22.41477394104004 32.072776794433594
